# xmcd CD database file
#
# Track frame offsets:
#	150
#	38418
#	77184
#	116918
#	146675
#	190828
#	234851
#	260845
#
# Disc length: 4632 seconds
#
# Revision: 0
# Processed by: cddbd v1.5.1PL2 Copyright (c) Steve Scherf et al.
# Submitted via: CDex 1.51
#
DISCID=69121608
DTITLE=Dave McMurdo Jazz Orchestra - Phil Nimmons - Canadian Portraits Series [CD3]
DYEAR=2005
DGENRE=Jazz
TTITLE0=Arf
TTITLE1=UTS
TTITLE2=Liese
TTITLE3=Three and Four
TTITLE4=Muse the Blues
TTITLE5=Herbs
TTITLE6=It's Up To You
TTITLE7=The Torch
EXTD=YEAR: 2005
EXTT0=
EXTT1=
EXTT2=
EXTT3=
EXTT4=
EXTT5=
EXTT6=
EXTT7=
PLAYORDER=
